<svg width="132" height="47" viewBox="0 0 132 47" fill="none" xmlns="http://www.w3.org/2000/svg">
<path d="M51.4998 26.3914V35.9947C51.4998 36.5583 51.3349 37.0092 51.0051 37.3022C50.6753 37.6178 50.2277 37.7531 49.6387 37.7531C49.0733 37.7531 48.6257 37.5953 48.2958 37.2797C47.966 36.9641 47.8011 36.5358 47.8011 35.9947V26.5718C47.8011 25.0388 47.4949 23.9342 46.9059 23.2129C46.3169 22.4915 45.3746 22.1308 44.1024 22.1308C42.6182 22.1308 41.4167 22.6042 40.4979 23.5285C39.6027 24.4753 39.1315 25.7151 39.1315 27.2931V35.9722C39.1315 36.5132 38.9666 36.9415 38.6368 37.2571C38.307 37.5728 37.8593 37.7306 37.2939 37.7306C36.7285 37.7306 36.2809 37.5728 35.9275 37.2571C35.5742 36.9415 35.4092 36.5132 35.4092 35.9722V20.936C35.4092 20.4175 35.5977 19.9892 35.9511 19.6511C36.3045 19.3129 36.7521 19.1551 37.2939 19.1551C37.8358 19.1551 38.2598 19.3129 38.5661 19.6285C38.8724 19.9441 39.0373 20.3724 39.0373 20.8909V22.4013C39.6262 21.3192 40.4508 20.4851 41.4874 19.9216C42.5475 19.358 43.7255 19.0649 45.0447 19.0649C49.356 19.11 51.4998 21.5221 51.4998 26.3914Z" fill="white"/>
<path d="M69.9226 33.4476C70.1347 33.7181 70.2524 34.0563 70.2524 34.4846C70.2524 35.206 69.8048 35.7921 68.9332 36.288C68.085 36.784 67.1427 37.1672 66.1297 37.4377C65.1167 37.7083 64.1507 37.8435 63.2084 37.8435C60.3814 37.8435 58.1433 37.0094 56.4942 35.3412C54.8451 33.6731 54.0441 31.3962 54.0441 28.5333C54.0441 26.6847 54.3974 25.0391 55.1278 23.6189C55.8581 22.1987 56.8711 21.0715 58.1668 20.3051C59.4861 19.516 60.9703 19.1328 62.6194 19.1328C65.0224 19.1328 66.9071 19.8993 68.2971 21.4547C69.687 23.0102 70.3938 25.1067 70.3938 27.7442C70.3938 28.7361 69.9462 29.2321 69.0745 29.2321H57.7428C57.9784 33.0419 59.8159 34.958 63.2084 34.958C64.1036 34.958 64.9046 34.8453 65.5643 34.5973C66.2239 34.3493 66.9307 34.0337 67.661 33.628C67.7317 33.5829 67.9437 33.4702 68.2735 33.3124C68.6033 33.1546 68.886 33.0644 69.0981 33.0644C69.4043 33.0419 69.687 33.1771 69.9226 33.4476ZM59.2741 23.2131C58.426 24.1148 57.9077 25.3998 57.7428 27.0454H67.1898C67.1191 25.3772 66.6951 24.0923 65.9177 23.1906C65.1402 22.2888 64.0565 21.838 62.6666 21.838C61.2766 21.838 60.1222 22.2888 59.2741 23.2131Z" fill="white"/>
<path d="M89.9712 36.0624C89.9712 36.5358 89.8063 36.9415 89.4764 37.2571C89.1466 37.5953 88.7461 37.7531 88.2749 37.7531C87.8038 37.7531 87.3797 37.5502 87.0028 37.1219L81.3958 30.7648L75.8124 37.1219C75.4119 37.5502 74.9878 37.7531 74.5402 37.7531C74.069 37.7531 73.6685 37.5727 73.3387 37.2346C73.0089 36.8965 72.844 36.4907 72.844 36.0173C72.844 35.5439 73.0089 35.1381 73.3623 34.7549L79.1577 28.3301L73.645 22.1533C73.268 21.725 73.1031 21.3192 73.1031 20.8909C73.1031 20.4175 73.2681 20.0117 73.6214 19.6961C73.9748 19.358 74.3518 19.2002 74.7994 19.2002C75.2705 19.2002 75.6946 19.4031 76.0715 19.8314L81.3958 25.8955L86.7201 19.8314C87.1206 19.4031 87.5446 19.2002 88.0394 19.2002C88.487 19.2002 88.8639 19.358 89.2173 19.6961C89.5707 20.0343 89.7356 20.4401 89.7356 20.8909C89.7356 21.3643 89.5471 21.7701 89.1937 22.1533L83.681 28.3301L89.4293 34.7549C89.7827 35.1381 89.9712 35.5664 89.9712 36.0624Z" fill="white"/>
<path d="M104.083 35.3411C104.318 35.5666 104.436 35.9047 104.436 36.3105C104.436 36.8064 104.248 37.1897 103.871 37.4377C103.494 37.6856 102.928 37.7983 102.198 37.7533L101.208 37.6856C99.2296 37.5278 97.7454 36.9192 96.7795 35.8596C95.79 34.7776 95.3188 33.1996 95.3188 31.1031V22.424H93.1043C92.0206 22.424 91.4788 21.9506 91.4788 20.9813C91.4788 20.5304 91.6201 20.1922 91.9028 19.9217C92.1855 19.6738 92.586 19.5385 93.1043 19.5385H95.2953V15.7287C95.2953 15.1652 95.4602 14.7143 95.79 14.3987C96.1198 14.0831 96.5674 13.9253 97.1328 13.9253C97.6983 13.9253 98.1459 14.0831 98.4992 14.3987C98.8526 14.7143 99.0175 15.1652 99.0175 15.7287V19.5385H102.646C103.164 19.5385 103.564 19.6738 103.847 19.9217C104.13 20.1697 104.271 20.5304 104.271 20.9813C104.271 21.4547 104.13 21.8153 103.847 22.0633C103.564 22.3113 103.164 22.424 102.646 22.424H98.994V31.3736C98.994 32.5233 99.2296 33.3799 99.7007 33.9209C100.172 34.462 100.902 34.7776 101.892 34.8452L102.928 34.9128C103.47 34.9579 103.847 35.1157 104.083 35.3411Z" fill="white"/>
<path d="M107.641 37.325C107.287 37.032 107.099 36.5811 107.099 35.995V13.1589C107.099 12.5728 107.287 12.1219 107.641 11.8063C107.994 11.4907 108.442 11.3555 108.984 11.3555C109.525 11.3555 109.973 11.5133 110.303 11.8063C110.656 12.1219 110.821 12.5728 110.821 13.1589V35.995C110.821 36.5811 110.656 37.032 110.303 37.325C109.95 37.6181 109.525 37.7759 108.984 37.7759C108.442 37.7533 107.994 37.6181 107.641 37.325Z" fill="white"/>
<path d="M129.338 19.4711C129.621 19.2908 129.927 19.2231 130.233 19.2231C130.705 19.2231 131.105 19.3809 131.458 19.6965C131.812 20.0122 132 20.3954 132 20.8462C132 21.0942 131.953 21.3196 131.859 21.5451L121.658 43.3442C121.517 43.6823 121.305 43.9528 121.022 44.1332C120.739 44.3135 120.433 44.4037 120.127 44.4037C119.679 44.4037 119.279 44.2459 118.925 43.9528C118.572 43.6598 118.383 43.2991 118.383 42.8482C118.383 42.6453 118.454 42.3974 118.572 42.1043L121.093 36.6714L114.025 21.5225C113.931 21.3196 113.884 21.0942 113.884 20.8688C113.884 20.3954 114.072 20.0122 114.473 19.6965C114.873 19.3809 115.297 19.2231 115.792 19.2231C116.522 19.2231 117.04 19.5613 117.37 20.2601L123.048 32.9744L128.702 20.3052C128.843 19.922 129.079 19.6515 129.338 19.4711Z" fill="white"/>
<path d="M12.2741 39.7368H0V6.86914H12.2741V11.4228V39.7368Z" fill="#E5E5E5"/>
<path d="M14.7947 46.0941L29.4247 39.6693V6.82417L14.7005 0.399414V46.0941" fill="white"/>
<path d="M0 6.86914L12.2741 13.6546V33.0641L0 39.7368V6.86914Z" fill="white"/>
</svg>
